<svg width="21" height="31" viewBox="0 0 21 31" fill="none" xmlns="http://www.w3.org/2000/svg">
<path d="M3 12.6385L3.84524 28.9776" stroke="black" stroke-width="4" stroke-linecap="round"/>
<path d="M17.3999 12.6385L16.5547 28.9776" stroke="black" stroke-width="4" stroke-linecap="round"/>
<path d="M4.19995 29L16.2 29" stroke="black" stroke-width="4" stroke-linecap="round"/>
<path d="M3 12.5883L17.4 12.5883" stroke="black" stroke-width="4" stroke-linecap="round"/>
<path d="M9 18.1331C9.0058 18.0699 9.23262 18.1114 9.25863 18.1146C9.41594 18.1341 9.57541 18.1767 9.73395 18.1807C9.95032 18.1862 10.1671 18.1998 10.3825 18.1998C10.5848 18.1998 10.787 18.2439 10.9906 18.2474C11.1328 18.2498 11.2689 18.2397 11.4084 18.2093C11.4584 18.1984 11.5226 18.1987 11.5692 18.1712C11.6132 18.1453 11.6751 18.1236 11.723 18.1236C11.7459 18.1236 11.7723 18.103 11.7929 18.0903C11.8177 18.0749 11.8435 18.0733 11.8674 18.0495C11.8758 18.0412 11.8874 18.0442 11.8973 18.0336C11.903 18.0276 11.9157 18.0103 11.9218 18.0093C11.9356 18.0071 11.9403 17.9841 11.9319 18.0199C11.9185 18.0773 11.9121 18.1446 11.9078 18.2046C11.8977 18.3457 11.8659 18.4773 11.8659 18.6189C11.8659 18.6665 11.8659 18.7141 11.8659 18.7617C11.8659 18.7887 11.8659 18.8157 11.8659 18.8427C11.8659 18.8822 11.8799 18.9142 11.8799 18.9527C11.8799 18.9636 11.8846 19.0316 11.8768 19.003C11.8615 18.9471 11.854 18.8773 11.8523 18.8178C11.849 18.7044 11.8379 18.5888 11.8379 18.476C11.8379 18.4445 11.8223 18.4025 11.8325 18.3712C11.8428 18.3397 11.8572 18.3111 11.8733 18.2855C11.8948 18.2512 11.9146 18.2384 11.9459 18.2241C11.9616 18.217 11.9766 18.211 11.9917 18.2019C12.0123 18.1894 11.9885 18.2182 11.9847 18.2305C11.9717 18.2725 11.9501 18.3102 11.9393 18.3527C11.9245 18.411 11.9115 18.4711 11.8939 18.5279C11.8474 18.6771 11.7706 18.8253 11.6927 18.948C11.6365 19.0365 11.5752 19.1488 11.5599 19.2686C11.5481 19.3609 11.5294 19.4544 11.5618 19.5427C11.5873 19.6121 11.6423 19.722 11.7047 19.7327C11.734 19.7377 11.7611 19.7263 11.7836 19.7004C11.8307 19.646 11.897 19.5712 11.9257 19.4951C11.9546 19.4184 11.9638 19.314 11.9638 19.2284C11.9638 19.0964 11.9463 19.4925 11.9533 19.6242C11.969 19.9203 11.9638 20.2175 11.9638 20.5142C11.9638 20.6092 11.9777 20.7012 11.9777 20.7957C11.9777 20.8652 11.9777 20.9347 11.9777 21.0042C11.9777 21.1446 11.9408 21.2711 11.9234 21.4074C11.9007 21.5845 11.8519 21.7508 11.8519 21.9333C11.8519 22.1082 11.824 22.2827 11.824 22.4577C11.824 22.5711 11.824 22.6845 11.824 22.7979C11.824 22.8344 11.8371 22.8508 11.8045 22.8646C11.7768 22.8763 11.7346 22.8732 11.7051 22.8757C11.6668 22.879 11.6278 22.8762 11.5894 22.8762C11.2322 22.8762 10.8744 22.862 10.5207 22.9408C10.4029 22.9671 10.2568 22.9854 10.1398 22.9482C10.063 22.9238 9.99365 22.908 9.9118 22.9048C9.82023 22.9013 9.72854 22.8858 9.6357 22.8858C9.61486 22.8858 9.59402 22.8858 9.57318 22.8858C9.55325 22.8858 9.54151 22.9039 9.5227 22.9048C9.49048 22.9064 9.46718 22.936 9.43687 22.9424C9.38361 22.9536 9.32072 22.9652 9.27261 22.9979C9.24381 23.0176 9.2629 22.8908 9.26873 22.8625C9.28017 22.8069 9.27924 22.7506 9.29008 22.6948C9.30029 22.6422 9.31023 22.5919 9.31804 22.5387C9.33554 22.4195 9.33552 22.2934 9.33552 22.1714C9.33552 21.9448 9.33582 21.7246 9.31455 21.5C9.31041 21.4563 9.30676 21.4128 9.30212 21.3693C9.2971 21.3222 9.28245 21.2755 9.27999 21.2285C9.27602 21.1529 9.25351 21.0798 9.25164 21.0021C9.24932 20.9056 9.21906 20.799 9.20271 20.7047C9.18146 20.5821 9.17188 20.4485 9.14252 20.3285C9.09721 20.1433 9.08203 19.9468 9.05747 19.7544C9.04586 19.6634 9.04347 19.5688 9.03145 19.4771C9.02394 19.4197 9.00855 19.3598 9.00699 19.3025C9.00574 19.2563 8.9949 19.2019 9.03107 19.1861C9.18456 19.119 9.36555 19.1816 9.52114 19.2046C9.65776 19.2248 9.79396 19.2241 9.93044 19.2427C10.0873 19.2641 10.2566 19.2565 10.4135 19.2401C10.4864 19.2324 10.5583 19.2284 10.6314 19.2284C10.6969 19.2284 10.7606 19.2112 10.8259 19.2094C10.8774 19.208 10.9265 19.1903 10.9782 19.1903C11.0311 19.1903 11.0826 19.1857 11.1351 19.176C11.2589 19.1532 11.3803 19.1522 11.5055 19.1522C11.5754 19.1522 11.6453 19.1522 11.7152 19.1522C11.7399 19.1522 11.7647 19.1522 11.7894 19.1522C11.8191 19.1522 11.8121 19.1468 11.7874 19.1332C11.7314 19.1023 11.6735 19.07 11.6212 19.0284C11.5625 18.9816 11.5366 18.9492 11.5079 18.8707C11.5039 18.86 11.5102 18.8329 11.5016 18.8358C11.4871 18.8407 11.4682 18.9301 11.4636 18.9459C11.4449 19.0092 11.4266 19.0731 11.4088 19.1369C11.3774 19.2494 11.364 19.369 11.3401 19.4845C11.3077 19.641 11.2582 19.7865 11.2383 19.948C11.2218 20.0822 11.2148 20.2178 11.1987 20.3523C11.1802 20.5076 11.1634 20.6629 11.1463 20.8185C11.1253 21.0094 11.1228 21.2259 11.0749 21.409C11.0298 21.5807 10.9531 21.7701 10.8485 21.8868C10.8095 21.9303 10.7702 21.9732 10.723 21.9989C10.6729 22.0263 10.5915 22.0148 10.5401 22.0032C10.4622 21.9856 10.3852 21.9579 10.3075 21.9381C10.26 21.926 10.2143 21.9115 10.1712 21.881C10.0653 21.8059 10.023 21.6138 9.99258 21.4703C9.93381 21.193 9.91304 20.9103 9.88773 20.6243C9.8781 20.5155 9.87443 20.4049 9.86715 20.2957C9.86167 20.2135 9.8461 20.1102 9.87375 20.0327C9.90092 19.9565 9.95136 19.9465 10.0089 19.9544C10.0786 19.9639 10.1425 20.0034 10.2069 20.038C10.2642 20.0687 10.3239 20.0935 10.3786 20.1327C10.4819 20.2068 10.5011 20.4222 10.5091 20.5666C10.5146 20.6675 10.5053 20.7688 10.4873 20.8666C10.4764 20.9259 10.4605 20.9831 10.4694 21.0455C10.4929 21.2084 10.6686 21.1007 10.7366 21.074C10.9447 20.9923 11.0783 20.7913 11.1805 20.5385C11.2917 20.2634 11.3601 19.9611 11.469 19.6856C11.5004 19.6063 11.5537 19.5395 11.5999 19.4766C11.629 19.4369 11.6608 19.3914 11.6981 19.366C11.729 19.345 11.7549 19.3072 11.7851 19.2877C11.8132 19.2696 11.8321 19.2645 11.8414 19.2189C11.8604 19.126 11.8026 19.0709 11.7502 19.0284C11.6783 18.9702 11.6107 18.9122 11.542 18.8474C11.4717 18.7811 11.5383 18.5986 11.5622 18.5194C11.5893 18.4299 11.6456 18.3656 11.6942 18.2993C11.7352 18.2434 11.7869 18.2152 11.8434 18.1924C11.8854 18.1754 11.9312 18.1976 11.9599 18.1474C11.9655 18.1376 11.9816 18.0768 11.9696 18.0993C11.9115 18.208 11.8676 18.3307 11.8076 18.439C11.7245 18.5892 11.6247 18.719 11.5273 18.8517C11.4537 18.952 11.3687 19.0474 11.3032 19.1565C11.2621 19.2248 11.196 19.2729 11.1669 19.3522" stroke="black" stroke-width="14" stroke-linecap="round"/>
<path d="M6 15.6274L6.59951 27.2164" stroke="white" stroke-width="2" stroke-linecap="round"/>
<path d="M13.884 15.6323L13.2845 27.2213" stroke="white" stroke-width="2" stroke-linecap="round"/>
<path d="M10.0081 15.6274V27.1765" stroke="white" stroke-width="2" stroke-linecap="round"/>
<path d="M2 7H18.5455" stroke="black" stroke-width="4" stroke-linecap="round"/>
<path d="M15 5C15 3.67392 14.4732 2.40215 13.5355 1.46447C12.5979 0.526784 11.3261 1.00116e-07 10 0C8.67392 -1.00116e-07 7.40215 0.526784 6.46447 1.46447C5.52678 2.40215 5 3.67392 5 5L10 5H15Z" fill="black"/>
<circle cx="10" cy="5" r="3" fill="white"/>
<rect x="7" y="5" width="6" height="3" fill="black"/>
</svg>
